<svg xmlns="http://www.w3.org/2000/svg" xmlns:xlink="http://www.w3.org/1999/xlink" width="120" zoomAndPan="magnify" viewBox="0 0 90 31.5" height="42" preserveAspectRatio="xMidYMid meet" version="1.0"><defs><g/><clipPath id="56ee2ab41c"><path d="M 10.164062 2.136719 L 37 2.136719 L 37 28.714844 L 10.164062 28.714844 Z M 10.164062 2.136719 " clip-rule="nonzero"/></clipPath><clipPath id="0c46c1ff19"><path d="M 18 8.507812 L 29 8.507812 L 29 22.316406 L 18 22.316406 Z M 18 8.507812 " clip-rule="nonzero"/></clipPath></defs><g clip-path="url(#56ee2ab41c)"><path fill="#3554d1" d="M 21.460938 2.136719 L 25.199219 2.136719 C 25.941406 2.136719 26.675781 2.210938 27.402344 2.355469 C 28.128906 2.503906 28.835938 2.71875 29.523438 3.003906 C 30.207031 3.289062 30.859375 3.640625 31.476562 4.058594 C 32.089844 4.472656 32.660156 4.945312 33.1875 5.472656 C 33.710938 6.003906 34.179688 6.578125 34.589844 7.199219 C 35.003906 7.820312 35.351562 8.476562 35.636719 9.167969 C 35.917969 9.859375 36.132812 10.570312 36.277344 11.304688 C 36.421875 12.039062 36.496094 12.78125 36.496094 13.527344 L 36.496094 17.296875 C 36.496094 18.046875 36.421875 18.785156 36.277344 19.519531 C 36.132812 20.253906 35.917969 20.964844 35.636719 21.65625 C 35.351562 22.347656 35.003906 23.003906 34.589844 23.625 C 34.179688 24.246094 33.710938 24.820312 33.1875 25.351562 C 32.660156 25.878906 32.089844 26.351562 31.476562 26.765625 C 30.859375 27.183594 30.207031 27.535156 29.523438 27.820312 C 28.835938 28.105469 28.128906 28.320312 27.402344 28.46875 C 26.675781 28.613281 25.941406 28.6875 25.199219 28.6875 L 21.460938 28.6875 C 20.71875 28.6875 19.984375 28.613281 19.257812 28.46875 C 18.527344 28.320312 17.824219 28.105469 17.136719 27.820312 C 16.453125 27.535156 15.800781 27.183594 15.183594 26.765625 C 14.566406 26.351562 13.996094 25.878906 13.472656 25.351562 C 12.949219 24.820312 12.480469 24.246094 12.066406 23.625 C 11.65625 23.003906 11.308594 22.347656 11.023438 21.65625 C 10.742188 20.964844 10.527344 20.253906 10.382812 19.519531 C 10.238281 18.785156 10.164062 18.046875 10.164062 17.296875 L 10.164062 13.527344 C 10.164062 12.78125 10.238281 12.039062 10.382812 11.304688 C 10.527344 10.570312 10.742188 9.859375 11.023438 9.167969 C 11.308594 8.476562 11.65625 7.820312 12.066406 7.199219 C 12.480469 6.578125 12.949219 6.003906 13.472656 5.472656 C 13.996094 4.945312 14.566406 4.472656 15.183594 4.058594 C 15.800781 3.640625 16.453125 3.289062 17.136719 3.003906 C 17.824219 2.71875 18.527344 2.503906 19.257812 2.355469 C 19.984375 2.210938 20.71875 2.136719 21.460938 2.136719 Z M 21.460938 2.136719 " fill-opacity="1" fill-rule="nonzero"/></g><g clip-path="url(#0c46c1ff19)"><path fill="#ffffff" d="M 28.507812 13.722656 C 28.507812 10.847656 26.191406 8.507812 23.339844 8.507812 C 20.488281 8.507812 18.167969 10.847656 18.167969 13.722656 C 18.167969 14.914062 19 16.609375 20.632812 18.75 C 21.125 19.394531 21.609375 19.976562 22.019531 20.445312 L 22.019531 21.902344 C 22.019531 22.132812 22.199219 22.316406 22.425781 22.316406 L 24.253906 22.316406 C 24.476562 22.316406 24.660156 22.132812 24.660156 21.902344 L 24.660156 20.445312 C 25.066406 19.976562 25.554688 19.394531 26.042969 18.75 C 27.679688 16.609375 28.507812 14.914062 28.507812 13.722656 Z M 27.695312 13.722656 C 27.695312 14.863281 26.640625 16.59375 25.488281 18.128906 L 24.976562 18.128906 C 25.59375 16.257812 25.90625 14.777344 25.90625 13.722656 C 25.90625 12.382812 25.667969 11.117188 25.238281 10.15625 C 25.15625 9.976562 25.066406 9.808594 24.972656 9.652344 C 26.566406 10.304688 27.695312 11.882812 27.695312 13.722656 Z M 23.84375 21.492188 L 22.832031 21.492188 L 22.832031 20.699219 L 23.84375 20.699219 Z M 24.070312 19.878906 L 22.609375 19.878906 C 22.371094 19.601562 22.105469 19.289062 21.832031 18.949219 L 22.269531 18.949219 C 22.269531 18.949219 22.269531 18.949219 22.273438 18.949219 C 22.273438 18.949219 24.847656 18.949219 24.847656 18.949219 C 24.582031 19.28125 24.316406 19.59375 24.070312 19.878906 Z M 23.339844 9.332031 C 23.742188 9.332031 24.164062 9.757812 24.496094 10.496094 C 24.878906 11.351562 25.089844 12.496094 25.089844 13.722656 C 25.089844 14.71875 24.753906 16.242188 24.117188 18.128906 L 22.5625 18.128906 C 21.921875 16.242188 21.585938 14.722656 21.585938 13.722656 C 21.585938 12.496094 21.796875 11.351562 22.183594 10.496094 C 22.515625 9.757812 22.9375 9.332031 23.339844 9.332031 Z M 18.984375 13.722656 C 18.984375 11.882812 20.109375 10.304688 21.703125 9.652344 C 21.609375 9.808594 21.523438 9.976562 21.441406 10.15625 C 21.007812 11.117188 20.773438 12.382812 20.773438 13.722656 C 20.773438 14.777344 21.085938 16.257812 21.703125 18.128906 L 21.1875 18.128906 C 19.746094 16.21875 18.984375 14.695312 18.984375 13.722656 Z M 18.984375 13.722656 " fill-opacity="1" fill-rule="nonzero"/></g><g fill="#000000" fill-opacity="1"><g transform="translate(38.263802, 14.573725)"><g><path d="M 2.890625 -8.09375 L 2.890625 -5.671875 L 6.140625 -5.671875 L 6.140625 -4.140625 L 2.890625 -4.140625 L 2.890625 -1.578125 L 6.546875 -1.578125 L 6.546875 0 L 0.953125 0 L 0.953125 -9.671875 L 6.546875 -9.671875 L 6.546875 -8.09375 Z M 2.890625 -8.09375 "/></g></g></g><g fill="#000000" fill-opacity="1"><g transform="translate(44.704495, 14.573725)"><g><path d="M 5.1875 0 L 3.609375 -2.375 L 2.21875 0 L 0.140625 0 L 2.640625 -3.84375 L 0.109375 -7.65625 L 2.296875 -7.65625 L 3.859375 -5.296875 L 5.265625 -7.65625 L 7.34375 -7.65625 L 4.828125 -3.84375 L 7.375 0 Z M 5.1875 0 "/></g></g></g><g fill="#000000" fill-opacity="1"><g transform="translate(51.255783, 14.573725)"><g><path d="M 2.890625 -6.546875 C 3.140625 -6.898438 3.484375 -7.191406 3.921875 -7.421875 C 4.359375 -7.660156 4.859375 -7.78125 5.421875 -7.78125 C 6.078125 -7.78125 6.671875 -7.617188 7.203125 -7.296875 C 7.734375 -6.972656 8.148438 -6.515625 8.453125 -5.921875 C 8.765625 -5.328125 8.921875 -4.640625 8.921875 -3.859375 C 8.921875 -3.078125 8.765625 -2.382812 8.453125 -1.78125 C 8.148438 -1.175781 7.734375 -0.707031 7.203125 -0.375 C 6.671875 -0.0390625 6.078125 0.125 5.421875 0.125 C 4.859375 0.125 4.363281 0.0078125 3.9375 -0.21875 C 3.507812 -0.445312 3.160156 -0.738281 2.890625 -1.09375 L 2.890625 3.65625 L 0.953125 3.65625 L 0.953125 -7.65625 L 2.890625 -7.65625 Z M 6.9375 -3.859375 C 6.9375 -4.316406 6.84375 -4.710938 6.65625 -5.046875 C 6.46875 -5.390625 6.21875 -5.644531 5.90625 -5.8125 C 5.601562 -5.988281 5.269531 -6.078125 4.90625 -6.078125 C 4.5625 -6.078125 4.234375 -5.988281 3.921875 -5.8125 C 3.609375 -5.632812 3.359375 -5.375 3.171875 -5.03125 C 2.984375 -4.6875 2.890625 -4.285156 2.890625 -3.828125 C 2.890625 -3.367188 2.984375 -2.96875 3.171875 -2.625 C 3.359375 -2.28125 3.609375 -2.019531 3.921875 -1.84375 C 4.234375 -1.664062 4.5625 -1.578125 4.90625 -1.578125 C 5.269531 -1.578125 5.601562 -1.664062 5.90625 -1.84375 C 6.21875 -2.03125 6.46875 -2.296875 6.65625 -2.640625 C 6.84375 -2.984375 6.9375 -3.390625 6.9375 -3.859375 Z M 6.9375 -3.859375 "/></g></g></g><g fill="#000000" fill-opacity="1"><g transform="translate(59.714665, 14.573725)"><g><path d="M 2.890625 -10.234375 L 2.890625 0 L 0.953125 0 L 0.953125 -10.234375 Z M 2.890625 -10.234375 "/></g></g></g><g fill="#000000" fill-opacity="1"><g transform="translate(62.644295, 14.573725)"><g><path d="M 4.359375 0.125 C 3.617188 0.125 2.953125 -0.0351562 2.359375 -0.359375 C 1.773438 -0.691406 1.3125 -1.15625 0.96875 -1.75 C 0.632812 -2.351562 0.46875 -3.046875 0.46875 -3.828125 C 0.46875 -4.609375 0.640625 -5.296875 0.984375 -5.890625 C 1.328125 -6.492188 1.800781 -6.957031 2.40625 -7.28125 C 3.007812 -7.613281 3.675781 -7.78125 4.40625 -7.78125 C 5.144531 -7.78125 5.8125 -7.613281 6.40625 -7.28125 C 7.007812 -6.957031 7.484375 -6.492188 7.828125 -5.890625 C 8.179688 -5.296875 8.359375 -4.609375 8.359375 -3.828125 C 8.359375 -3.046875 8.175781 -2.351562 7.8125 -1.75 C 7.457031 -1.15625 6.976562 -0.691406 6.375 -0.359375 C 5.769531 -0.0351562 5.097656 0.125 4.359375 0.125 Z M 4.359375 -1.5625 C 4.703125 -1.5625 5.03125 -1.644531 5.34375 -1.8125 C 5.65625 -1.988281 5.898438 -2.242188 6.078125 -2.578125 C 6.265625 -2.921875 6.359375 -3.335938 6.359375 -3.828125 C 6.359375 -4.554688 6.164062 -5.113281 5.78125 -5.5 C 5.40625 -5.894531 4.941406 -6.09375 4.390625 -6.09375 C 3.828125 -6.09375 3.359375 -5.894531 2.984375 -5.5 C 2.617188 -5.113281 2.4375 -4.554688 2.4375 -3.828125 C 2.4375 -3.097656 2.617188 -2.535156 2.984375 -2.140625 C 3.347656 -1.753906 3.804688 -1.5625 4.359375 -1.5625 Z M 4.359375 -1.5625 "/></g></g></g><g fill="#000000" fill-opacity="1"><g transform="translate(70.55025, 14.573725)"><g><path d="M 2.890625 -6.46875 C 3.140625 -6.875 3.460938 -7.191406 3.859375 -7.421875 C 4.265625 -7.648438 4.722656 -7.765625 5.234375 -7.765625 L 5.234375 -5.734375 L 4.734375 -5.734375 C 4.117188 -5.734375 3.65625 -5.585938 3.34375 -5.296875 C 3.039062 -5.015625 2.890625 -4.519531 2.890625 -3.8125 L 2.890625 0 L 0.953125 0 L 0.953125 -7.65625 L 2.890625 -7.65625 Z M 2.890625 -6.46875 "/></g></g></g><g fill="#000000" fill-opacity="1"><g transform="translate(75.221585, 14.573725)"><g><path d="M 8.078125 -4 C 8.078125 -3.71875 8.054688 -3.46875 8.015625 -3.25 L 2.421875 -3.25 C 2.460938 -2.695312 2.65625 -2.265625 3 -1.953125 C 3.34375 -1.640625 3.765625 -1.484375 4.265625 -1.484375 C 4.984375 -1.484375 5.492188 -1.789062 5.796875 -2.40625 L 7.875 -2.40625 C 7.65625 -1.664062 7.234375 -1.054688 6.609375 -0.578125 C 5.984375 -0.109375 5.210938 0.125 4.296875 0.125 C 3.554688 0.125 2.894531 -0.0351562 2.3125 -0.359375 C 1.726562 -0.691406 1.269531 -1.15625 0.9375 -1.75 C 0.613281 -2.351562 0.453125 -3.046875 0.453125 -3.828125 C 0.453125 -4.617188 0.613281 -5.3125 0.9375 -5.90625 C 1.257812 -6.507812 1.710938 -6.972656 2.296875 -7.296875 C 2.878906 -7.617188 3.546875 -7.78125 4.296875 -7.78125 C 5.023438 -7.78125 5.675781 -7.625 6.25 -7.3125 C 6.832031 -7 7.28125 -6.550781 7.59375 -5.96875 C 7.914062 -5.394531 8.078125 -4.738281 8.078125 -4 Z M 6.078125 -4.546875 C 6.066406 -5.046875 5.882812 -5.441406 5.53125 -5.734375 C 5.175781 -6.035156 4.75 -6.1875 4.25 -6.1875 C 3.769531 -6.1875 3.363281 -6.039062 3.03125 -5.75 C 2.707031 -5.46875 2.507812 -5.066406 2.4375 -4.546875 Z M 6.078125 -4.546875 "/></g></g></g><g fill="#000000" fill-opacity="1"><g transform="translate(38.263802, 27.30998)"><g><path d="M 2.890625 -1.53125 L 6.078125 -1.53125 L 6.078125 0 L 0.953125 0 L 0.953125 -9.65625 L 2.890625 -9.65625 Z M 2.890625 -1.53125 "/></g></g></g><g fill="#000000" fill-opacity="1"><g transform="translate(43.695408, 27.30998)"><g><path d="M 4.359375 0.125 C 3.617188 0.125 2.953125 -0.0351562 2.359375 -0.359375 C 1.773438 -0.691406 1.3125 -1.15625 0.96875 -1.75 C 0.632812 -2.351562 0.46875 -3.046875 0.46875 -3.828125 C 0.46875 -4.609375 0.640625 -5.296875 0.984375 -5.890625 C 1.328125 -6.492188 1.800781 -6.957031 2.40625 -7.28125 C 3.007812 -7.613281 3.675781 -7.78125 4.40625 -7.78125 C 5.144531 -7.78125 5.8125 -7.613281 6.40625 -7.28125 C 7.007812 -6.957031 7.484375 -6.492188 7.828125 -5.890625 C 8.179688 -5.296875 8.359375 -4.609375 8.359375 -3.828125 C 8.359375 -3.046875 8.175781 -2.351562 7.8125 -1.75 C 7.457031 -1.15625 6.976562 -0.691406 6.375 -0.359375 C 5.769531 -0.0351562 5.097656 0.125 4.359375 0.125 Z M 4.359375 -1.5625 C 4.703125 -1.5625 5.03125 -1.644531 5.34375 -1.8125 C 5.65625 -1.988281 5.898438 -2.242188 6.078125 -2.578125 C 6.265625 -2.921875 6.359375 -3.335938 6.359375 -3.828125 C 6.359375 -4.554688 6.164062 -5.113281 5.78125 -5.5 C 5.40625 -5.894531 4.941406 -6.09375 4.390625 -6.09375 C 3.828125 -6.09375 3.359375 -5.894531 2.984375 -5.5 C 2.617188 -5.113281 2.4375 -4.554688 2.4375 -3.828125 C 2.4375 -3.097656 2.617188 -2.535156 2.984375 -2.140625 C 3.347656 -1.753906 3.804688 -1.5625 4.359375 -1.5625 Z M 4.359375 -1.5625 "/></g></g></g><g fill="#000000" fill-opacity="1"><g transform="translate(51.601363, 27.30998)"><g><path d="M 0.453125 -3.828125 C 0.453125 -4.617188 0.613281 -5.3125 0.9375 -5.90625 C 1.257812 -6.5 1.707031 -6.957031 2.28125 -7.28125 C 2.851562 -7.613281 3.507812 -7.78125 4.25 -7.78125 C 5.195312 -7.78125 5.976562 -7.539062 6.59375 -7.0625 C 7.21875 -6.59375 7.640625 -5.929688 7.859375 -5.078125 L 5.765625 -5.078125 C 5.648438 -5.410156 5.460938 -5.671875 5.203125 -5.859375 C 4.941406 -6.046875 4.617188 -6.140625 4.234375 -6.140625 C 3.679688 -6.140625 3.242188 -5.9375 2.921875 -5.53125 C 2.597656 -5.132812 2.4375 -4.566406 2.4375 -3.828125 C 2.4375 -3.097656 2.597656 -2.53125 2.921875 -2.125 C 3.242188 -1.726562 3.679688 -1.53125 4.234375 -1.53125 C 5.015625 -1.53125 5.523438 -1.878906 5.765625 -2.578125 L 7.859375 -2.578125 C 7.640625 -1.753906 7.21875 -1.097656 6.59375 -0.609375 C 5.96875 -0.117188 5.1875 0.125 4.25 0.125 C 3.507812 0.125 2.851562 -0.0351562 2.28125 -0.359375 C 1.707031 -0.691406 1.257812 -1.15625 0.9375 -1.75 C 0.613281 -2.34375 0.453125 -3.035156 0.453125 -3.828125 Z M 0.453125 -3.828125 "/></g></g></g><g fill="#000000" fill-opacity="1"><g transform="translate(59.009674, 27.30998)"><g><path d="M 0.453125 -3.859375 C 0.453125 -4.628906 0.601562 -5.3125 0.90625 -5.90625 C 1.21875 -6.507812 1.640625 -6.972656 2.171875 -7.296875 C 2.703125 -7.617188 3.296875 -7.78125 3.953125 -7.78125 C 4.523438 -7.78125 5.023438 -7.664062 5.453125 -7.4375 C 5.878906 -7.207031 6.222656 -6.914062 6.484375 -6.5625 L 6.484375 -7.65625 L 8.4375 -7.65625 L 8.4375 0 L 6.484375 0 L 6.484375 -1.125 C 6.234375 -0.757812 5.890625 -0.457031 5.453125 -0.21875 C 5.015625 0.0078125 4.507812 0.125 3.9375 0.125 C 3.289062 0.125 2.703125 -0.0390625 2.171875 -0.375 C 1.640625 -0.707031 1.21875 -1.175781 0.90625 -1.78125 C 0.601562 -2.382812 0.453125 -3.078125 0.453125 -3.859375 Z M 6.484375 -3.828125 C 6.484375 -4.296875 6.390625 -4.695312 6.203125 -5.03125 C 6.023438 -5.375 5.773438 -5.632812 5.453125 -5.8125 C 5.140625 -5.988281 4.804688 -6.078125 4.453125 -6.078125 C 4.085938 -6.078125 3.753906 -5.988281 3.453125 -5.8125 C 3.148438 -5.644531 2.90625 -5.390625 2.71875 -5.046875 C 2.53125 -4.710938 2.4375 -4.316406 2.4375 -3.859375 C 2.4375 -3.398438 2.53125 -2.992188 2.71875 -2.640625 C 2.90625 -2.296875 3.148438 -2.03125 3.453125 -1.84375 C 3.765625 -1.664062 4.097656 -1.578125 4.453125 -1.578125 C 4.804688 -1.578125 5.140625 -1.664062 5.453125 -1.84375 C 5.773438 -2.019531 6.023438 -2.273438 6.203125 -2.609375 C 6.390625 -2.953125 6.484375 -3.359375 6.484375 -3.828125 Z M 6.484375 -3.828125 "/></g></g></g><g fill="#000000" fill-opacity="1"><g transform="translate(67.468556, 27.30998)"><g><path d="M 2.890625 -10.234375 L 2.890625 0 L 0.953125 0 L 0.953125 -10.234375 Z M 2.890625 -10.234375 "/></g></g></g></svg>