<svg xmlns="http://www.w3.org/2000/svg" xmlns:xlink="http://www.w3.org/1999/xlink" width="180" zoomAndPan="magnify" viewBox="0 0 135 31.5" height="42" preserveAspectRatio="xMidYMid meet" version="1.0"><defs><g/><clipPath id="a363c54136"><path d="M 14.71875 1.273438 L 43 1.273438 L 43 29.328125 L 14.71875 29.328125 Z M 14.71875 1.273438 " clip-rule="nonzero"/></clipPath><clipPath id="1bb602cac4"><path d="M 23 8 L 35 8 L 35 22.574219 L 23 22.574219 Z M 23 8 " clip-rule="nonzero"/></clipPath></defs><g clip-path="url(#a363c54136)"><path fill="#ffffff" d="M 26.792969 1.273438 L 30.789062 1.273438 C 31.582031 1.273438 32.367188 1.351562 33.144531 1.503906 C 33.921875 1.65625 34.675781 1.886719 35.40625 2.1875 C 36.140625 2.492188 36.835938 2.859375 37.496094 3.300781 C 38.152344 3.738281 38.761719 4.234375 39.324219 4.792969 C 39.882812 5.351562 40.382812 5.960938 40.824219 6.617188 C 41.265625 7.273438 41.636719 7.964844 41.941406 8.695312 C 42.242188 9.425781 42.472656 10.175781 42.625 10.949219 C 42.78125 11.726562 42.859375 12.507812 42.859375 13.296875 L 42.859375 17.277344 C 42.859375 18.066406 42.78125 18.847656 42.625 19.621094 C 42.472656 20.394531 42.242188 21.148438 41.941406 21.878906 C 41.636719 22.605469 41.265625 23.300781 40.824219 23.957031 C 40.382812 24.613281 39.882812 25.21875 39.324219 25.777344 C 38.761719 26.335938 38.152344 26.835938 37.496094 27.273438 C 36.835938 27.710938 36.140625 28.082031 35.40625 28.382812 C 34.675781 28.6875 33.921875 28.914062 33.144531 29.070312 C 32.367188 29.222656 31.582031 29.300781 30.789062 29.300781 L 26.792969 29.300781 C 26 29.300781 25.21875 29.222656 24.441406 29.070312 C 23.664062 28.914062 22.90625 28.6875 22.175781 28.382812 C 21.445312 28.082031 20.746094 27.710938 20.089844 27.273438 C 19.429688 26.835938 18.820312 26.335938 18.261719 25.777344 C 17.699219 25.21875 17.199219 24.613281 16.757812 23.957031 C 16.320312 23.300781 15.945312 22.605469 15.644531 21.878906 C 15.339844 21.148438 15.113281 20.394531 14.957031 19.621094 C 14.800781 18.847656 14.726562 18.066406 14.726562 17.277344 L 14.726562 13.296875 C 14.726562 12.507812 14.800781 11.726562 14.957031 10.949219 C 15.113281 10.175781 15.339844 9.425781 15.644531 8.695312 C 15.945312 7.964844 16.320312 7.273438 16.757812 6.617188 C 17.199219 5.960938 17.699219 5.351562 18.261719 4.792969 C 18.820312 4.234375 19.429688 3.738281 20.089844 3.300781 C 20.746094 2.859375 21.445312 2.492188 22.175781 2.1875 C 22.90625 1.886719 23.664062 1.65625 24.441406 1.503906 C 25.21875 1.351562 26 1.273438 26.792969 1.273438 Z M 26.792969 1.273438 " fill-opacity="1" fill-rule="nonzero"/></g><g clip-path="url(#1bb602cac4)"><path fill="#051036" d="M 34.328125 13.503906 C 34.328125 10.46875 31.847656 8 28.800781 8 C 25.753906 8 23.277344 10.46875 23.277344 13.503906 C 23.277344 14.761719 24.164062 16.546875 25.914062 18.8125 C 26.4375 19.488281 26.957031 20.105469 27.390625 20.597656 L 27.390625 22.140625 C 27.390625 22.378906 27.585938 22.574219 27.824219 22.574219 L 29.777344 22.574219 C 30.019531 22.574219 30.214844 22.378906 30.214844 22.140625 L 30.214844 20.597656 C 30.648438 20.105469 31.167969 19.488281 31.691406 18.8125 C 33.441406 16.546875 34.328125 14.761719 34.328125 13.503906 Z M 33.457031 13.503906 C 33.457031 14.707031 32.328125 16.535156 31.097656 18.152344 L 30.550781 18.152344 C 31.210938 16.175781 31.546875 14.613281 31.546875 13.503906 C 31.546875 12.089844 31.292969 10.75 30.832031 9.738281 C 30.742188 9.546875 30.648438 9.367188 30.550781 9.207031 C 32.25 9.894531 33.457031 11.5625 33.457031 13.503906 Z M 29.34375 21.707031 L 28.261719 21.707031 L 28.261719 20.867188 L 29.34375 20.867188 Z M 29.585938 20 L 28.023438 20 C 27.769531 19.710938 27.484375 19.378906 27.191406 19.019531 L 27.660156 19.019531 C 27.660156 19.019531 27.660156 19.023438 27.660156 19.023438 C 27.664062 19.023438 30.414062 19.019531 30.414062 19.019531 C 30.128906 19.371094 29.847656 19.699219 29.585938 20 Z M 28.800781 8.867188 C 29.230469 8.867188 29.679688 9.316406 30.039062 10.097656 C 30.449219 11 30.675781 12.210938 30.675781 13.503906 C 30.675781 14.554688 30.3125 16.160156 29.632812 18.152344 L 27.972656 18.152344 C 27.289062 16.160156 26.929688 14.554688 26.929688 13.503906 C 26.929688 12.210938 27.15625 11 27.566406 10.097656 C 27.921875 9.316406 28.371094 8.867188 28.800781 8.867188 Z M 24.148438 13.503906 C 24.148438 11.5625 25.351562 9.894531 27.054688 9.207031 C 26.957031 9.367188 26.859375 9.546875 26.773438 9.738281 C 26.3125 10.75 26.058594 12.089844 26.058594 13.503906 C 26.058594 14.613281 26.394531 16.175781 27.054688 18.152344 L 26.503906 18.152344 C 24.960938 16.136719 24.148438 14.53125 24.148438 13.503906 Z M 24.148438 13.503906 " fill-opacity="1" fill-rule="nonzero"/></g><g fill="#ffffff" fill-opacity="1"><g transform="translate(44.488712, 20.38481)"><g><path d="M 3.203125 -8.953125 L 3.203125 -6.28125 L 6.796875 -6.28125 L 6.796875 -4.578125 L 3.203125 -4.578125 L 3.203125 -1.75 L 7.265625 -1.75 L 7.265625 0 L 1.0625 0 L 1.0625 -10.703125 L 7.265625 -10.703125 L 7.265625 -8.953125 Z M 3.203125 -8.953125 "/></g></g></g><g fill="#ffffff" fill-opacity="1"><g transform="translate(51.619245, 20.38481)"><g><path d="M 5.734375 0 L 4 -2.640625 L 2.453125 0 L 0.15625 0 L 2.921875 -4.25 L 0.125 -8.484375 L 2.546875 -8.484375 L 4.265625 -5.859375 L 5.828125 -8.484375 L 8.125 -8.484375 L 5.34375 -4.25 L 8.15625 0 Z M 5.734375 0 "/></g></g></g><g fill="#ffffff" fill-opacity="1"><g transform="translate(58.872217, 20.38481)"><g><path d="M 3.203125 -7.265625 C 3.472656 -7.648438 3.847656 -7.972656 4.328125 -8.234375 C 4.816406 -8.492188 5.375 -8.625 6 -8.625 C 6.726562 -8.625 7.382812 -8.441406 7.96875 -8.078125 C 8.550781 -7.722656 9.015625 -7.21875 9.359375 -6.5625 C 9.703125 -5.90625 9.875 -5.140625 9.875 -4.265625 C 9.875 -3.398438 9.703125 -2.632812 9.359375 -1.96875 C 9.015625 -1.300781 8.550781 -0.78125 7.96875 -0.40625 C 7.382812 -0.0390625 6.726562 0.140625 6 0.140625 C 5.375 0.140625 4.820312 0.015625 4.34375 -0.234375 C 3.875 -0.492188 3.492188 -0.816406 3.203125 -1.203125 L 3.203125 4.046875 L 1.0625 4.046875 L 1.0625 -8.484375 L 3.203125 -8.484375 Z M 7.6875 -4.265625 C 7.6875 -4.773438 7.582031 -5.21875 7.375 -5.59375 C 7.164062 -5.96875 6.890625 -6.25 6.546875 -6.4375 C 6.203125 -6.632812 5.832031 -6.734375 5.4375 -6.734375 C 5.050781 -6.734375 4.6875 -6.632812 4.34375 -6.4375 C 4 -6.238281 3.722656 -5.945312 3.515625 -5.5625 C 3.304688 -5.1875 3.203125 -4.742188 3.203125 -4.234375 C 3.203125 -3.722656 3.304688 -3.28125 3.515625 -2.90625 C 3.722656 -2.53125 4 -2.242188 4.34375 -2.046875 C 4.6875 -1.847656 5.050781 -1.75 5.4375 -1.75 C 5.832031 -1.75 6.203125 -1.847656 6.546875 -2.046875 C 6.890625 -2.253906 7.164062 -2.546875 7.375 -2.921875 C 7.582031 -3.296875 7.6875 -3.742188 7.6875 -4.265625 Z M 7.6875 -4.265625 "/></g></g></g><g fill="#ffffff" fill-opacity="1"><g transform="translate(68.237101, 20.38481)"><g><path d="M 3.203125 -11.328125 L 3.203125 0 L 1.0625 0 L 1.0625 -11.328125 Z M 3.203125 -11.328125 "/></g></g></g><g fill="#ffffff" fill-opacity="1"><g transform="translate(71.480513, 20.38481)"><g><path d="M 4.828125 0.140625 C 4.003906 0.140625 3.265625 -0.0390625 2.609375 -0.40625 C 1.960938 -0.769531 1.453125 -1.28125 1.078125 -1.9375 C 0.703125 -2.601562 0.515625 -3.367188 0.515625 -4.234375 C 0.515625 -5.109375 0.707031 -5.875 1.09375 -6.53125 C 1.476562 -7.195312 2 -7.710938 2.65625 -8.078125 C 3.320312 -8.441406 4.066406 -8.625 4.890625 -8.625 C 5.703125 -8.625 6.4375 -8.441406 7.09375 -8.078125 C 7.757812 -7.710938 8.285156 -7.195312 8.671875 -6.53125 C 9.054688 -5.875 9.25 -5.109375 9.25 -4.234375 C 9.25 -3.367188 9.050781 -2.601562 8.65625 -1.9375 C 8.257812 -1.28125 7.726562 -0.769531 7.0625 -0.40625 C 6.394531 -0.0390625 5.648438 0.140625 4.828125 0.140625 Z M 4.828125 -1.734375 C 5.210938 -1.734375 5.578125 -1.828125 5.921875 -2.015625 C 6.265625 -2.203125 6.535156 -2.484375 6.734375 -2.859375 C 6.941406 -3.242188 7.046875 -3.703125 7.046875 -4.234375 C 7.046875 -5.046875 6.832031 -5.664062 6.40625 -6.09375 C 5.976562 -6.53125 5.460938 -6.75 4.859375 -6.75 C 4.242188 -6.75 3.726562 -6.53125 3.3125 -6.09375 C 2.894531 -5.664062 2.6875 -5.046875 2.6875 -4.234375 C 2.6875 -3.429688 2.890625 -2.8125 3.296875 -2.375 C 3.703125 -1.945312 4.210938 -1.734375 4.828125 -1.734375 Z M 4.828125 -1.734375 "/></g></g></g><g fill="#ffffff" fill-opacity="1"><g transform="translate(80.233247, 20.38481)"><g><path d="M 3.203125 -7.171875 C 3.472656 -7.617188 3.832031 -7.96875 4.28125 -8.21875 C 4.726562 -8.476562 5.234375 -8.609375 5.796875 -8.609375 L 5.796875 -6.359375 L 5.234375 -6.359375 C 4.554688 -6.359375 4.046875 -6.195312 3.703125 -5.875 C 3.367188 -5.5625 3.203125 -5.007812 3.203125 -4.21875 L 3.203125 0 L 1.0625 0 L 1.0625 -8.484375 L 3.203125 -8.484375 Z M 3.203125 -7.171875 "/></g></g></g><g fill="#ffffff" fill-opacity="1"><g transform="translate(85.404912, 20.38481)"><g><path d="M 8.9375 -4.421875 C 8.9375 -4.117188 8.914062 -3.84375 8.875 -3.59375 L 2.671875 -3.59375 C 2.722656 -2.976562 2.9375 -2.5 3.3125 -2.15625 C 3.695312 -1.8125 4.164062 -1.640625 4.71875 -1.640625 C 5.507812 -1.640625 6.078125 -1.984375 6.421875 -2.671875 L 8.734375 -2.671875 C 8.484375 -1.847656 8.007812 -1.171875 7.3125 -0.640625 C 6.625 -0.117188 5.773438 0.140625 4.765625 0.140625 C 3.941406 0.140625 3.207031 -0.0390625 2.5625 -0.40625 C 1.914062 -0.769531 1.410156 -1.28125 1.046875 -1.9375 C 0.679688 -2.601562 0.5 -3.367188 0.5 -4.234375 C 0.5 -5.117188 0.675781 -5.890625 1.03125 -6.546875 C 1.394531 -7.210938 1.894531 -7.722656 2.53125 -8.078125 C 3.175781 -8.441406 3.921875 -8.625 4.765625 -8.625 C 5.566406 -8.625 6.285156 -8.445312 6.921875 -8.09375 C 7.566406 -7.75 8.0625 -7.257812 8.40625 -6.625 C 8.757812 -5.988281 8.9375 -5.253906 8.9375 -4.421875 Z M 6.71875 -5.03125 C 6.707031 -5.582031 6.507812 -6.023438 6.125 -6.359375 C 5.738281 -6.691406 5.265625 -6.859375 4.703125 -6.859375 C 4.171875 -6.859375 3.722656 -6.695312 3.359375 -6.375 C 2.992188 -6.050781 2.769531 -5.601562 2.6875 -5.03125 Z M 6.71875 -5.03125 "/></g></g></g><g fill="#ffffff" fill-opacity="1"><g transform="translate(93.836273, 20.38481)"><g><path d="M 3.203125 -1.703125 L 6.71875 -1.703125 L 6.71875 0 L 1.0625 0 L 1.0625 -10.6875 L 3.203125 -10.6875 Z M 3.203125 -1.703125 "/></g></g></g><g fill="#ffffff" fill-opacity="1"><g transform="translate(99.84964, 20.38481)"><g><path d="M 4.828125 0.140625 C 4.003906 0.140625 3.265625 -0.0390625 2.609375 -0.40625 C 1.960938 -0.769531 1.453125 -1.28125 1.078125 -1.9375 C 0.703125 -2.601562 0.515625 -3.367188 0.515625 -4.234375 C 0.515625 -5.109375 0.707031 -5.875 1.09375 -6.53125 C 1.476562 -7.195312 2 -7.710938 2.65625 -8.078125 C 3.320312 -8.441406 4.066406 -8.625 4.890625 -8.625 C 5.703125 -8.625 6.4375 -8.441406 7.09375 -8.078125 C 7.757812 -7.710938 8.285156 -7.195312 8.671875 -6.53125 C 9.054688 -5.875 9.25 -5.109375 9.25 -4.234375 C 9.25 -3.367188 9.050781 -2.601562 8.65625 -1.9375 C 8.257812 -1.28125 7.726562 -0.769531 7.0625 -0.40625 C 6.394531 -0.0390625 5.648438 0.140625 4.828125 0.140625 Z M 4.828125 -1.734375 C 5.210938 -1.734375 5.578125 -1.828125 5.921875 -2.015625 C 6.265625 -2.203125 6.535156 -2.484375 6.734375 -2.859375 C 6.941406 -3.242188 7.046875 -3.703125 7.046875 -4.234375 C 7.046875 -5.046875 6.832031 -5.664062 6.40625 -6.09375 C 5.976562 -6.53125 5.460938 -6.75 4.859375 -6.75 C 4.242188 -6.75 3.726562 -6.53125 3.3125 -6.09375 C 2.894531 -5.664062 2.6875 -5.046875 2.6875 -4.234375 C 2.6875 -3.429688 2.890625 -2.8125 3.296875 -2.375 C 3.703125 -1.945312 4.210938 -1.734375 4.828125 -1.734375 Z M 4.828125 -1.734375 "/></g></g></g><g fill="#ffffff" fill-opacity="1"><g transform="translate(108.602372, 20.38481)"><g><path d="M 0.5 -4.234375 C 0.5 -5.117188 0.675781 -5.890625 1.03125 -6.546875 C 1.394531 -7.203125 1.890625 -7.710938 2.515625 -8.078125 C 3.148438 -8.441406 3.878906 -8.625 4.703125 -8.625 C 5.753906 -8.625 6.625 -8.359375 7.3125 -7.828125 C 8 -7.304688 8.460938 -6.570312 8.703125 -5.625 L 6.390625 -5.625 C 6.265625 -5.988281 6.054688 -6.273438 5.765625 -6.484375 C 5.472656 -6.691406 5.113281 -6.796875 4.6875 -6.796875 C 4.070312 -6.796875 3.582031 -6.570312 3.21875 -6.125 C 2.863281 -5.6875 2.6875 -5.054688 2.6875 -4.234375 C 2.6875 -3.429688 2.863281 -2.804688 3.21875 -2.359375 C 3.582031 -1.921875 4.070312 -1.703125 4.6875 -1.703125 C 5.550781 -1.703125 6.117188 -2.085938 6.390625 -2.859375 L 8.703125 -2.859375 C 8.460938 -1.941406 7.992188 -1.210938 7.296875 -0.671875 C 6.609375 -0.128906 5.742188 0.140625 4.703125 0.140625 C 3.878906 0.140625 3.148438 -0.0390625 2.515625 -0.40625 C 1.890625 -0.769531 1.394531 -1.28125 1.03125 -1.9375 C 0.675781 -2.59375 0.5 -3.359375 0.5 -4.234375 Z M 0.5 -4.234375 "/></g></g></g><g fill="#ffffff" fill-opacity="1"><g transform="translate(116.804158, 20.38481)"><g><path d="M 0.5 -4.265625 C 0.5 -5.128906 0.671875 -5.890625 1.015625 -6.546875 C 1.359375 -7.210938 1.820312 -7.722656 2.40625 -8.078125 C 3 -8.441406 3.65625 -8.625 4.375 -8.625 C 5.007812 -8.625 5.5625 -8.492188 6.03125 -8.234375 C 6.507812 -7.984375 6.894531 -7.660156 7.1875 -7.265625 L 7.1875 -8.484375 L 9.34375 -8.484375 L 9.34375 0 L 7.1875 0 L 7.1875 -1.234375 C 6.90625 -0.835938 6.519531 -0.507812 6.03125 -0.25 C 5.550781 0.0078125 4.992188 0.140625 4.359375 0.140625 C 3.648438 0.140625 3 -0.0390625 2.40625 -0.40625 C 1.820312 -0.78125 1.359375 -1.300781 1.015625 -1.96875 C 0.671875 -2.632812 0.5 -3.398438 0.5 -4.265625 Z M 7.1875 -4.234375 C 7.1875 -4.753906 7.082031 -5.203125 6.875 -5.578125 C 6.664062 -5.953125 6.390625 -6.238281 6.046875 -6.4375 C 5.703125 -6.632812 5.332031 -6.734375 4.9375 -6.734375 C 4.53125 -6.734375 4.160156 -6.632812 3.828125 -6.4375 C 3.492188 -6.25 3.21875 -5.96875 3 -5.59375 C 2.789062 -5.21875 2.6875 -4.773438 2.6875 -4.265625 C 2.6875 -3.753906 2.789062 -3.304688 3 -2.921875 C 3.21875 -2.546875 3.492188 -2.253906 3.828125 -2.046875 C 4.171875 -1.847656 4.539062 -1.75 4.9375 -1.75 C 5.332031 -1.75 5.703125 -1.847656 6.046875 -2.046875 C 6.390625 -2.242188 6.664062 -2.523438 6.875 -2.890625 C 7.082031 -3.265625 7.1875 -3.710938 7.1875 -4.234375 Z M 7.1875 -4.234375 "/></g></g></g><g fill="#ffffff" fill-opacity="1"><g transform="translate(126.169039, 20.38481)"><g><path d="M 3.203125 -11.328125 L 3.203125 0 L 1.0625 0 L 1.0625 -11.328125 Z M 3.203125 -11.328125 "/></g></g></g></svg>